<svg fill="none" height="106" viewBox="0 0 250 106" width="250" xmlns="http://www.w3.org/2000/svg"><path d="m93.93 94.2987h-17.0632l10.2517-34.8974h-8.6692l-14.2422 46.5987h-17.0632l28.2093-94.3675h17.0631l-9.6324 33.1078h8.6692l13.6919-44.7403h17.063z" fill="#e02041"/><path d="m123.584 11.6325h32.544l-4.885 14.8675h-14.793l-5.366 18.1714h14.861l-4.678 14.6611h-14.518l-5.711 19.2039h15.825l-5.711 15.6935h-31.9242z" fill="#e02041"/><path d="m151.312 106h-17.201l27.452-94.3675h31.237c3.715 0 6.192 1.0324 7.499 3.1662 1.308 2.1338 1.514 4.5429.689 7.2961l-8.257 28.0831c-.413 1.239-1.17 2.3403-2.339 3.3728-1.17 1.0324-2.821 1.5142-4.954 1.5142 1.307.2065 2.408 1.0325 3.303 2.478.894 1.4454.894 3.648 0 6.6078l-8.876 30.148h-17.132l9.495-32.4195c.206-.6883.275-1.3078.069-1.9272-.207-.6195-.826-.8949-1.858-.8949h-5.711zm22.842-59.126c.826 0 1.583-.2065 2.34-.6194.688-.413 1.238-1.239 1.651-2.5468l4.541-15.3494c.688-2.2714-.207-3.4415-2.615-3.4415h-5.366l-6.468 21.9571z" fill="#e02041"/><path d="m242.957 11.6325c2.684 0 4.61.9636 5.849 2.8909 1.238 1.9273 1.513 4.1299.825 6.5389l-18.989 64.4949c-1.032 3.4415-2.821 5.7129-5.298 6.9519s-5.16 1.7896-7.981 1.7896h-20.366c-1.445 0-2.752-.2753-3.991-.7571-1.238-.4818-2.201-1.239-3.027-2.2026-.826-.9637-1.307-2.2026-1.582-3.5792-.276-1.3767-.138-2.9598.412-4.7494l18.646-63.3247c.619-2.4091 1.858-4.4052 3.715-5.8506 1.858-1.4455 4.197-2.2026 7.018-2.2026zm-17.888 13.2844c-.826 0-1.445.2065-1.789.5506-.413.413-.619.8948-.826 1.4455l-15.205 51.4857c-.413 1.3766.137 2.065 1.582 2.065h4.404c1.444 0 2.339-.6884 2.752-2.065l15.136-51.4169c.344-1.4454-.206-2.1337-1.72-2.1337h-4.334z" fill="#e02041"/><g fill="#41414d"><path d="m31.443 20.6494h11.0773c1.4449 0 2.3393.413 2.7521 1.1701.4129.7571.4817 1.6519.2064 2.7532l-2.6145 8.9481c-.1376.5506-.4816 1.0325-1.032 1.4455-.5504.4818-1.3761.6194-2.4081.6194.5504 0 .9632.1377 1.2384.3442.3441.2065.5505.4818.6881.826.1376.3441.2064.6883.2064 1.1013 0 .4129-.0688.8259-.1376 1.1701l-2.4769 8.1909c-.2753.9636-.8257 1.7208-1.5137 2.2714-.688.5507-1.7889.826-3.0961.826h-11.6278zm1.1009 24.7792c.2752 0 .5504-.0688.7568-.1377.2064-.1376.4128-.413.5504-.8259l1.7889-5.9884c.1376-.4129.1376-.6883 0-.9636s-.4128-.3442-.8256-.3442h-1.9265l-2.4769 8.3286h2.1329zm3.3713-12.252c.4128 0 .7569-.0688.9633-.2065.2064-.1376.4128-.4129.5504-.8948l1.5825-5.3688c.1376-.413.1376-.6883.0688-.8948-.1376-.2065-.4129-.3442-.8257-.3442h-1.9953l-2.2705 7.7091z"/><path d="m48.7812 20.6494h11.6965l-1.5825 5.3688h-5.5042l-1.9265 6.539h5.3666l-1.5824 5.3h-5.3667l-2.0641 6.8831h5.7107l-2.0641 5.6441h-11.4213z"/><path d="m18.9897 55.5468-1.5825 5.3688h-4.197l-7.08673 24.2974h-6.12347l7.22432-24.3662h-4.26579l1.58247-5.3689h14.4487z"/><path d="m27.3149 85.213h-6.1234l3.6465-12.5272h-3.0961l-3.7154 12.5272h-6.1235l8.738-29.6662h6.1235l-3.4401 11.9078h3.0961l3.509-11.9078h6.1234z"/><path d="m37.9794 55.5468h11.6965l-1.5825 5.3688h-5.5042l-1.9265 6.539h5.3666l-1.5824 5.3h-5.3667l-2.0641 6.8831h5.7107l-2.0641 5.6442h-11.4213z"/></g></svg>